<svg height="1870" width="720" xmlns="http://www.w3.org/2000/svg">
<rect height="1870" fill="#555" width="720"></rect>
<text fill="#7f7" font-family="Courier New" font-size="12" xml:space="preserve">
<tspan x="10" y="26">11 megabytes installed</tspan>
<tspan x="10" y="42"></tspan>
<tspan x="10" y="58">node_modules</tspan>
<tspan x="10" y="74">└─┬ gulp-awspublish-router@0.1.3 </tspan>
<tspan x="10" y="90">  ├─┬ gulp-awspublish@0.0.16 </tspan>
<tspan x="10" y="106">  │ ├── clone@0.2.0 </tspan>
<tspan x="10" y="122">  │ ├─┬ event-stream@3.3.4 </tspan>
<tspan x="10" y="138">  │ │ ├── duplexer@0.1.1 </tspan>
<tspan x="10" y="154">  │ │ ├── from@0.1.7 </tspan>
<tspan x="10" y="170">  │ │ ├── map-stream@0.1.0 </tspan>
<tspan x="10" y="186">  │ │ ├── pause-stream@0.0.11 </tspan>
<tspan x="10" y="202">  │ │ ├── split@0.3.3 </tspan>
<tspan x="10" y="218">  │ │ ├── stream-combiner@0.0.4 </tspan>
<tspan x="10" y="234">  │ │ └── through@2.3.8 </tspan>
<tspan x="10" y="250">  │ ├─┬ knox@0.9.2 </tspan>
<tspan x="10" y="266">  │ │ ├─┬ debug@1.0.4 </tspan>
<tspan x="10" y="282">  │ │ │ └── ms@0.6.2 </tspan>
<tspan x="10" y="298">  │ │ ├─┬ once@1.4.0 </tspan>
<tspan x="10" y="314">  │ │ │ └── wrappy@1.0.2 </tspan>
<tspan x="10" y="330">  │ │ ├── stream-counter@1.0.0 </tspan>
<tspan x="10" y="346">  │ │ └─┬ xml2js@0.4.17 </tspan>
<tspan x="10" y="362">  │ │   ├── sax@1.2.2 </tspan>
<tspan x="10" y="378">  │ │   └─┬ xmlbuilder@4.2.1 </tspan>
<tspan x="10" y="394">  │ │     └── lodash@4.17.4 </tspan>
<tspan x="10" y="410">  │ ├── mime@1.3.4 </tspan>
<tspan x="10" y="426">  │ ├── pad-component@0.0.1 </tspan>
<tspan x="10" y="442">  │ ├─┬ s3-deleter@0.1.2 </tspan>
<tspan x="10" y="458">  │ │ └── async@0.9.2 </tspan>
<tspan x="10" y="474">  │ └─┬ s3-lister@0.1.0 </tspan>
<tspan x="10" y="490">  │   └── readable-stream@1.0.34 </tspan>
<tspan x="10" y="506">  ├─┬ gulp-util@2.2.20 </tspan>
<tspan x="10" y="522">  │ ├─┬ chalk@0.5.1 </tspan>
<tspan x="10" y="538">  │ │ ├── ansi-styles@1.1.0 </tspan>
<tspan x="10" y="554">  │ │ ├── escape-string-regexp@1.0.5 </tspan>
<tspan x="10" y="570">  │ │ ├─┬ has-ansi@0.1.0 </tspan>
<tspan x="10" y="586">  │ │ │ └── ansi-regex@0.2.1 </tspan>
<tspan x="10" y="602">  │ │ ├── strip-ansi@0.3.0 </tspan>
<tspan x="10" y="618">  │ │ └── supports-color@0.2.0 </tspan>
<tspan x="10" y="634">  │ ├─┬ dateformat@1.0.12 </tspan>
<tspan x="10" y="650">  │ │ ├── get-stdin@4.0.1 </tspan>
<tspan x="10" y="666">  │ │ └─┬ meow@3.7.0 </tspan>
<tspan x="10" y="682">  │ │   ├─┬ camelcase-keys@2.1.0 </tspan>
<tspan x="10" y="698">  │ │   │ └── camelcase@2.1.1 </tspan>
<tspan x="10" y="714">  │ │   ├── decamelize@1.2.0 </tspan>
<tspan x="10" y="730">  │ │   ├─┬ loud-rejection@1.6.0 </tspan>
<tspan x="10" y="746">  │ │   │ ├─┬ currently-unhandled@0.4.1 </tspan>
<tspan x="10" y="762">  │ │   │ │ └── array-find-index@1.0.2 </tspan>
<tspan x="10" y="778">  │ │   │ └── signal-exit@3.0.2 </tspan>
<tspan x="10" y="794">  │ │   ├── map-obj@1.0.1 </tspan>
<tspan x="10" y="810">  │ │   ├── minimist@1.2.0 </tspan>
<tspan x="10" y="826">  │ │   ├─┬ normalize-package-data@2.3.6 </tspan>
<tspan x="10" y="842">  │ │   │ ├── hosted-git-info@2.4.2 </tspan>
<tspan x="10" y="858">  │ │   │ ├─┬ is-builtin-module@1.0.0 </tspan>
<tspan x="10" y="874">  │ │   │ │ └── builtin-modules@1.1.1 </tspan>
<tspan x="10" y="890">  │ │   │ ├── semver@5.3.0 </tspan>
<tspan x="10" y="906">  │ │   │ └─┬ validate-npm-package-license@3.0.1 </tspan>
<tspan x="10" y="922">  │ │   │   ├─┬ spdx-correct@1.0.2 </tspan>
<tspan x="10" y="938">  │ │   │   │ └── spdx-license-ids@1.2.2 </tspan>
<tspan x="10" y="954">  │ │   │   └── spdx-expression-parse@1.0.4 </tspan>
<tspan x="10" y="970">  │ │   ├── object-assign@4.1.1 </tspan>
<tspan x="10" y="986">  │ │   ├─┬ read-pkg-up@1.0.1 </tspan>
<tspan x="10" y="1002">  │ │   │ ├─┬ find-up@1.1.2 </tspan>
<tspan x="10" y="1018">  │ │   │ │ ├── path-exists@2.1.0 </tspan>
<tspan x="10" y="1034">  │ │   │ │ └─┬ pinkie-promise@2.0.1 </tspan>
<tspan x="10" y="1050">  │ │   │ │   └── pinkie@2.0.4 </tspan>
<tspan x="10" y="1066">  │ │   │ └─┬ read-pkg@1.1.0 </tspan>
<tspan x="10" y="1082">  │ │   │   ├─┬ load-json-file@1.1.0 </tspan>
<tspan x="10" y="1098">  │ │   │   │ ├── graceful-fs@4.1.11 </tspan>
<tspan x="10" y="1114">  │ │   │   │ ├─┬ parse-json@2.2.0 </tspan>
<tspan x="10" y="1130">  │ │   │   │ │ └─┬ error-ex@1.3.1 </tspan>
<tspan x="10" y="1146">  │ │   │   │ │   └── is-arrayish@0.2.1 </tspan>
<tspan x="10" y="1162">  │ │   │   │ ├── pify@2.3.0 </tspan>
<tspan x="10" y="1178">  │ │   │   │ └─┬ strip-bom@2.0.0 </tspan>
<tspan x="10" y="1194">  │ │   │   │   └── is-utf8@0.2.1 </tspan>
<tspan x="10" y="1210">  │ │   │   └── path-type@1.1.0 </tspan>
<tspan x="10" y="1226">  │ │   ├─┬ redent@1.0.0 </tspan>
<tspan x="10" y="1242">  │ │   │ ├─┬ indent-string@2.1.0 </tspan>
<tspan x="10" y="1258">  │ │   │ │ └─┬ repeating@2.0.1 </tspan>
<tspan x="10" y="1274">  │ │   │ │   └─┬ is-finite@1.0.2 </tspan>
<tspan x="10" y="1290">  │ │   │ │     └── number-is-nan@1.0.1 </tspan>
<tspan x="10" y="1306">  │ │   │ └── strip-indent@1.0.1 </tspan>
<tspan x="10" y="1322">  │ │   └── trim-newlines@1.0.0 </tspan>
<tspan x="10" y="1338">  │ ├── lodash._reinterpolate@2.4.1 </tspan>
<tspan x="10" y="1354">  │ ├─┬ lodash.template@2.4.1 </tspan>
<tspan x="10" y="1370">  │ │ ├── lodash._escapestringchar@2.4.1 </tspan>
<tspan x="10" y="1386">  │ │ ├─┬ lodash.defaults@2.4.1 </tspan>
<tspan x="10" y="1402">  │ │ │ └── lodash._objecttypes@2.4.1 </tspan>
<tspan x="10" y="1418">  │ │ ├─┬ lodash.escape@2.4.1 </tspan>
<tspan x="10" y="1434">  │ │ │ ├─┬ lodash._escapehtmlchar@2.4.1 </tspan>
<tspan x="10" y="1450">  │ │ │ │ └── lodash._htmlescapes@2.4.1 </tspan>
<tspan x="10" y="1466">  │ │ │ └── lodash._reunescapedhtml@2.4.1 </tspan>
<tspan x="10" y="1482">  │ │ ├─┬ lodash.keys@2.4.1 </tspan>
<tspan x="10" y="1498">  │ │ │ ├── lodash._isnative@2.4.1 </tspan>
<tspan x="10" y="1514">  │ │ │ ├── lodash._shimkeys@2.4.1 </tspan>
<tspan x="10" y="1530">  │ │ │ └── lodash.isobject@2.4.1 </tspan>
<tspan x="10" y="1546">  │ │ ├── lodash.templatesettings@2.4.1 </tspan>
<tspan x="10" y="1562">  │ │ └── lodash.values@2.4.1 </tspan>
<tspan x="10" y="1578">  │ ├── minimist@0.2.0 </tspan>
<tspan x="10" y="1594">  │ ├─┬ multipipe@0.1.2 </tspan>
<tspan x="10" y="1610">  │ │ └─┬ duplexer2@0.0.2 </tspan>
<tspan x="10" y="1626">  │ │   └── readable-stream@1.1.14 </tspan>
<tspan x="10" y="1642">  │ ├─┬ through2@0.5.1 </tspan>
<tspan x="10" y="1658">  │ │ ├── readable-stream@1.0.34 </tspan>
<tspan x="10" y="1674">  │ │ └── xtend@3.0.0 </tspan>
<tspan x="10" y="1690">  │ └─┬ vinyl@0.2.3 </tspan>
<tspan x="10" y="1706">  │   └── clone-stats@0.0.1 </tspan>
<tspan x="10" y="1722">  ├── lodash@2.4.2 </tspan>
<tspan x="10" y="1738">  └─┬ through2@0.4.2 </tspan>
<tspan x="10" y="1754">    ├─┬ readable-stream@1.0.34 </tspan>
<tspan x="10" y="1770">    │ ├── core-util-is@1.0.2 </tspan>
<tspan x="10" y="1786">    │ ├── inherits@2.0.3 </tspan>
<tspan x="10" y="1802">    │ ├── isarray@0.0.1 </tspan>
<tspan x="10" y="1818">    │ └── string_decoder@0.10.31 </tspan>
<tspan x="10" y="1834">    └─┬ xtend@2.1.2 </tspan>
<tspan x="10" y="1850">      └── object-keys@0.4.0</tspan>
</text>
</svg>
